<svg xmlns="http://www.w3.org/2000/svg" xmlns:xlink="http://www.w3.org/1999/xlink" preserveAspectRatio="xMidYMid" width="10.5" height="16.5" viewBox="0 0 10.5 16.5">
  <defs>
    <style>
      .cls-1 {
        fill: #fff;
        fill-rule: evenodd;
      }
    </style>
  </defs>
  <path d="M0.784,3.957 L5.073,8.245 L0.630,12.688 L0.631,12.689 C0.241,13.093 0.000,13.643 0.000,14.250 C0.000,15.493 1.007,16.500 2.250,16.500 C2.857,16.500 3.407,16.259 3.812,15.869 L3.812,15.870 L9.812,9.870 L9.812,9.869 C10.236,9.460 10.500,8.886 10.500,8.250 C10.500,8.248 10.500,8.247 10.500,8.245 C10.500,8.243 10.500,8.242 10.500,8.240 C10.500,7.604 10.236,7.030 9.812,6.621 L9.812,6.620 L3.812,0.620 L3.806,0.626 C3.402,0.239 2.854,0.000 2.250,0.000 C1.007,0.000 0.000,1.007 0.000,2.250 C0.000,2.933 0.305,3.544 0.784,3.957 Z" class="cls-1"/>
</svg>
