<svg xmlns="http://www.w3.org/2000/svg" xmlns:xlink="http://www.w3.org/1999/xlink" preserveAspectRatio="xMidYMid" width="32" height="32" viewBox="0 0 32 32">
  <defs>
    <style>
      .cls-1 {
        fill: #af6ca1;
        fill-rule: evenodd;
      }
    </style>
  </defs>
  <path d="M30.000,4.000 L26.000,4.000 L26.000,1.500 C26.000,0.672 25.328,0.000 24.500,0.000 C23.672,0.000 23.000,0.672 23.000,1.500 L23.000,4.000 L9.000,4.000 L9.000,1.500 C9.000,0.672 8.328,0.000 7.500,0.000 C6.672,0.000 6.000,0.672 6.000,1.500 L6.000,4.000 L2.000,4.000 C0.895,4.000 -0.000,4.895 -0.000,6.000 L-0.000,30.000 C-0.000,31.105 0.895,32.000 2.000,32.000 L30.000,32.000 C31.104,32.000 32.000,31.105 32.000,30.000 L32.000,6.000 C32.000,4.895 31.104,4.000 30.000,4.000 ZM29.000,29.000 L3.000,29.000 L3.000,13.000 L29.000,13.000 L29.000,29.000 ZM29.000,10.000 L3.000,10.000 L3.000,7.000 L29.000,7.000 L29.000,10.000 Z" class="cls-1"/>
</svg>
