<svg xmlns="http://www.w3.org/2000/svg" xmlns:xlink="http://www.w3.org/1999/xlink" preserveAspectRatio="xMidYMid" width="32" height="32" viewBox="0 0 32 32">
  <defs>
    <style>
      .cls-1 {
        fill: #af6ca1;
        fill-rule: evenodd;
      }
    </style>
  </defs>
  <path d="M32.000,9.499 C32.000,5.915 29.084,2.999 25.500,2.999 C24.644,2.999 23.809,3.168 23.028,3.498 C21.467,1.332 18.859,-0.001 16.000,-0.001 C13.141,-0.001 10.533,1.332 8.972,3.498 C8.191,3.168 7.356,2.999 6.500,2.999 C2.916,2.999 -0.000,5.915 -0.000,9.499 C-0.000,12.566 2.138,15.137 5.000,15.817 L5.000,28.998 C5.000,30.656 6.343,31.998 8.000,31.998 L24.000,31.998 C25.657,31.998 27.000,30.656 27.000,28.998 L27.000,15.817 C29.862,15.137 32.000,12.566 32.000,9.499 ZM10.828,14.343 C12.301,15.408 14.115,15.998 16.000,15.998 C17.885,15.998 19.700,15.408 21.172,14.343 C21.976,15.064 22.951,15.552 24.000,15.802 L24.000,23.999 L8.000,23.999 L8.000,15.802 C9.049,15.552 10.024,15.064 10.828,14.343 ZM8.000,28.998 L8.000,26.998 L24.000,26.998 L24.000,28.998 L8.000,28.998 ZM25.500,12.998 C24.318,12.998 23.223,12.402 22.571,11.403 C22.318,11.015 21.900,10.766 21.439,10.727 C21.398,10.724 21.356,10.722 21.314,10.722 C20.897,10.722 20.497,10.896 20.212,11.205 C19.161,12.345 17.625,12.998 16.000,12.998 C14.374,12.998 12.839,12.345 11.788,11.205 C11.474,10.865 11.023,10.695 10.560,10.727 C10.099,10.766 9.682,11.015 9.429,11.403 C8.777,12.402 7.683,12.998 6.500,12.998 C4.570,12.998 3.000,11.428 3.000,9.499 C3.000,7.569 4.570,5.998 6.500,5.998 C7.254,5.998 7.984,6.251 8.611,6.731 C8.976,7.010 9.449,7.105 9.895,6.993 C10.340,6.878 10.709,6.566 10.894,6.145 C11.737,4.234 13.741,2.999 16.000,2.999 C18.259,2.999 20.263,4.233 21.105,6.144 C21.291,6.565 21.659,6.878 22.105,6.993 C22.551,7.105 23.024,7.010 23.389,6.731 C24.015,6.251 24.746,5.998 25.500,5.998 C27.430,5.998 29.000,7.569 29.000,9.499 C29.000,11.428 27.430,12.998 25.500,12.998 Z" class="cls-1"/>
</svg>
