<svg xmlns="http://www.w3.org/2000/svg" xmlns:xlink="http://www.w3.org/1999/xlink" preserveAspectRatio="xMidYMid" width="35" height="32" viewBox="0 0 35 32">
  <defs>
    <style>
      .cls-1 {
        fill: #af6ca1;
        fill-rule: evenodd;
      }
    </style>
  </defs>
  <path d="M34.726,9.256 L28.726,22.256 C28.250,23.285 27.208,24.000 26.000,24.000 L7.000,24.000 C5.344,24.000 4.000,22.657 4.000,21.000 L4.000,6.121 L0.440,2.560 C0.168,2.289 0.000,1.914 0.000,1.500 C0.000,0.671 0.672,0.000 1.500,0.000 C1.914,0.000 2.289,0.168 2.561,0.439 L7.121,5.000 L32.000,5.000 C33.657,5.000 35.000,6.343 35.000,8.000 C35.000,8.448 34.902,8.874 34.726,9.256 ZM7.000,21.000 L26.000,21.000 L29.694,13.000 L7.000,13.000 L7.000,21.000 ZM32.000,8.000 L7.000,8.000 L7.000,10.000 L31.078,10.000 L32.002,7.998 L32.000,8.000 ZM8.000,26.000 C9.657,26.000 11.000,27.343 11.000,29.000 C11.000,30.657 9.657,32.000 8.000,32.000 C6.344,32.000 5.000,30.657 5.000,29.000 C5.000,27.343 6.344,26.000 8.000,26.000 ZM24.000,26.000 C25.657,26.000 27.000,27.343 27.000,29.000 C27.000,30.657 25.657,32.000 24.000,32.000 C22.344,32.000 21.000,30.657 21.000,29.000 C21.000,27.343 22.344,26.000 24.000,26.000 Z" class="cls-1"/>
</svg>
