<svg xmlns="http://www.w3.org/2000/svg" xmlns:xlink="http://www.w3.org/1999/xlink" preserveAspectRatio="xMidYMid" width="24.06" height="24.031" viewBox="0 0 24.06 24.031">
  <defs>
    <style>
      .cls-1 {
        fill: #d7e3f0;
        fill-rule: evenodd;
      }
    </style>
  </defs>
  <path d="M23.250,19.542 L16.490,12.778 C16.457,12.752 16.424,12.724 16.393,12.694 C16.362,12.662 16.334,12.630 16.309,12.597 C16.034,12.235 16.062,11.714 16.393,11.384 L16.388,11.378 L23.085,4.701 L23.420,4.367 C24.292,3.331 24.239,1.781 23.263,0.806 C22.271,-0.185 20.687,-0.224 19.650,0.686 L19.405,0.932 L12.711,7.619 C12.708,7.622 12.702,7.626 12.699,7.633 C12.691,7.638 12.685,7.646 12.680,7.652 C12.668,7.664 12.656,7.675 12.644,7.686 C12.643,7.686 12.643,7.686 12.643,7.686 C12.292,8.004 11.755,8.004 11.402,7.686 C11.391,7.675 11.378,7.664 11.368,7.652 C11.356,7.641 11.346,7.630 11.336,7.619 L4.691,0.969 L4.356,0.634 C3.317,-0.235 1.766,-0.182 0.788,0.793 C-0.203,1.783 -0.242,3.364 0.671,4.401 L0.917,4.647 L7.613,11.334 C7.613,11.334 7.613,11.334 7.615,11.335 C7.626,11.345 7.639,11.357 7.650,11.369 C7.664,11.382 7.676,11.395 7.689,11.409 C8.000,11.761 7.998,12.289 7.687,12.639 C7.686,12.640 7.684,12.641 7.683,12.643 C7.672,12.654 7.662,12.667 7.650,12.677 C7.639,12.688 7.629,12.697 7.619,12.707 C7.616,12.708 7.616,12.710 7.615,12.710 L0.928,19.393 L0.627,19.691 C-0.252,20.721 -0.204,22.270 0.770,23.243 C1.796,24.267 3.453,24.269 4.480,23.248 L4.489,23.238 L11.350,16.400 C11.354,16.395 11.358,16.392 11.362,16.387 C11.372,16.376 11.385,16.365 11.396,16.355 C11.760,16.025 12.322,16.037 12.674,16.387 L12.674,16.387 L19.398,23.101 L19.698,23.401 C20.730,24.277 22.281,24.230 23.254,23.257 C24.279,22.233 24.282,20.576 23.258,19.551 L23.250,19.542 Z" class="cls-1"/>
</svg>
