<svg xmlns="http://www.w3.org/2000/svg" xmlns:xlink="http://www.w3.org/1999/xlink" preserveAspectRatio="xMidYMid" width="133.97" height="133.969" viewBox="0 0 133.97 133.969">
  <defs>
    <style>
      .cls-1 {
        fill: #72c8fa;
        fill-rule: evenodd;
      }

      .cls-2 {
        stroke: #d7e3f0;
        stroke-width: 1px;
        fill: none;
      }
    </style>
  </defs>
  <g>
    <path d="M88.436,92.750 L43.004,92.750 C39.535,92.750 36.722,89.976 36.722,86.553 L36.722,47.098 C36.722,43.676 39.535,40.902 43.004,40.902 L47.596,40.902 L47.596,35.538 C47.596,34.551 48.408,33.750 49.409,33.750 C50.410,33.750 51.221,34.551 51.221,35.538 L51.221,40.902 L79.313,40.902 L79.313,35.538 C79.313,34.551 80.124,33.750 81.125,33.750 C82.126,33.750 82.937,34.551 82.937,35.538 L82.937,40.902 L88.436,40.902 C91.905,40.902 94.718,43.676 94.718,47.098 L94.718,86.553 C94.718,89.976 91.905,92.750 88.436,92.750 ZM43.004,89.174 L88.436,89.174 C89.904,89.174 91.093,88.001 91.093,86.553 L91.093,57.886 L40.347,57.886 L40.347,86.553 C40.347,88.001 41.536,89.174 43.004,89.174 ZM88.436,44.477 L82.937,44.477 L82.937,48.947 C82.937,49.934 82.126,50.735 81.125,50.735 C80.124,50.735 79.313,49.934 79.313,48.947 L79.313,44.477 L51.221,44.477 L51.221,48.947 C51.221,49.934 50.410,50.735 49.409,50.735 C48.408,50.735 47.596,49.934 47.596,48.947 L47.596,44.477 L43.004,44.477 C41.536,44.477 40.347,45.650 40.347,47.098 L40.347,56.099 L91.093,56.099 L91.093,47.098 C91.093,45.650 89.904,44.477 88.436,44.477 ZM49.223,64.144 L50.129,64.144 C50.630,64.144 51.035,64.544 51.035,65.038 C51.035,65.532 50.630,65.932 50.129,65.932 L49.223,65.932 C48.722,65.932 48.317,65.532 48.317,65.038 C48.317,64.544 48.722,64.144 49.223,64.144 ZM49.223,69.507 L50.129,69.507 C50.630,69.507 51.035,69.907 51.035,70.401 C51.035,70.896 50.630,71.295 50.129,71.295 L49.223,71.295 C48.722,71.295 48.317,70.896 48.317,70.401 C48.317,69.907 48.722,69.507 49.223,69.507 ZM49.223,74.871 L50.129,74.871 C50.630,74.871 51.035,75.271 51.035,75.765 C51.035,76.259 50.630,76.659 50.129,76.659 L49.223,76.659 C48.722,76.659 48.317,76.259 48.317,75.765 C48.317,75.271 48.722,74.871 49.223,74.871 ZM49.223,80.235 L50.129,80.235 C50.630,80.235 51.035,80.635 51.035,81.129 C51.035,81.623 50.630,82.023 50.129,82.023 L49.223,82.023 C48.722,82.023 48.317,81.623 48.317,81.129 C48.317,80.635 48.722,80.235 49.223,80.235 ZM55.566,64.144 L56.472,64.144 C56.973,64.144 57.379,64.544 57.379,65.038 C57.379,65.532 56.973,65.932 56.472,65.932 L55.566,65.932 C55.065,65.932 54.660,65.532 54.660,65.038 C54.660,64.544 55.065,64.144 55.566,64.144 ZM55.566,69.507 L56.472,69.507 C56.973,69.507 57.379,69.907 57.379,70.401 C57.379,70.896 56.973,71.295 56.472,71.295 L55.566,71.295 C55.065,71.295 54.660,70.896 54.660,70.401 C54.660,69.907 55.065,69.507 55.566,69.507 ZM55.566,74.871 L56.472,74.871 C56.973,74.871 57.379,75.271 57.379,75.765 C57.379,76.259 56.973,76.659 56.472,76.659 L55.566,76.659 C55.065,76.659 54.660,76.259 54.660,75.765 C54.660,75.271 55.065,74.871 55.566,74.871 ZM55.566,80.235 L56.472,80.235 C56.973,80.235 57.379,80.635 57.379,81.129 C57.379,81.623 56.973,82.023 56.472,82.023 L55.566,82.023 C55.065,82.023 54.660,81.623 54.660,81.129 C54.660,80.635 55.065,80.235 55.566,80.235 ZM61.909,64.144 L62.816,64.144 C63.316,64.144 63.722,64.544 63.722,65.038 C63.722,65.532 63.316,65.932 62.816,65.932 L61.909,65.932 C61.409,65.932 61.003,65.532 61.003,65.038 C61.003,64.544 61.409,64.144 61.909,64.144 ZM61.909,69.507 L62.816,69.507 C63.316,69.507 63.722,69.907 63.722,70.401 C63.722,70.896 63.316,71.295 62.816,71.295 L61.909,71.295 C61.409,71.295 61.003,70.896 61.003,70.401 C61.003,69.907 61.409,69.507 61.909,69.507 ZM61.909,74.871 L62.816,74.871 C63.316,74.871 63.722,75.271 63.722,75.765 C63.722,76.259 63.316,76.659 62.816,76.659 L61.909,76.659 C61.409,76.659 61.003,76.259 61.003,75.765 C61.003,75.271 61.409,74.871 61.909,74.871 ZM61.909,80.235 L62.816,80.235 C63.316,80.235 63.722,80.635 63.722,81.129 C63.722,81.623 63.316,82.023 62.816,82.023 L61.909,82.023 C61.409,82.023 61.003,81.623 61.003,81.129 C61.003,80.635 61.409,80.235 61.909,80.235 ZM67.347,64.144 L68.253,64.144 C68.754,64.144 69.159,64.544 69.159,65.038 C69.159,65.532 68.754,65.932 68.253,65.932 L67.347,65.932 C66.846,65.932 66.440,65.532 66.440,65.038 C66.440,64.544 66.846,64.144 67.347,64.144 ZM67.347,69.507 L68.253,69.507 C68.754,69.507 69.159,69.907 69.159,70.401 C69.159,70.896 68.754,71.295 68.253,71.295 L67.347,71.295 C66.846,71.295 66.440,70.896 66.440,70.401 C66.440,69.907 66.846,69.507 67.347,69.507 ZM67.347,74.871 L68.253,74.871 C68.754,74.871 69.159,75.271 69.159,75.765 C69.159,76.259 68.754,76.659 68.253,76.659 L67.347,76.659 C66.846,76.659 66.440,76.259 66.440,75.765 C66.440,75.271 66.846,74.871 67.347,74.871 ZM67.347,80.235 L68.253,80.235 C68.754,80.235 69.159,80.635 69.159,81.129 C69.159,81.623 68.754,82.023 68.253,82.023 L67.347,82.023 C66.846,82.023 66.440,81.623 66.440,81.129 C66.440,80.635 66.846,80.235 67.347,80.235 ZM73.690,64.144 L74.596,64.144 C75.097,64.144 75.502,64.544 75.502,65.038 C75.502,65.532 75.097,65.932 74.596,65.932 L73.690,65.932 C73.189,65.932 72.784,65.532 72.784,65.038 C72.784,64.544 73.189,64.144 73.690,64.144 ZM73.690,69.507 L74.596,69.507 C75.097,69.507 75.502,69.907 75.502,70.401 C75.502,70.896 75.097,71.295 74.596,71.295 L73.690,71.295 C73.189,71.295 72.784,70.896 72.784,70.401 C72.784,69.907 73.189,69.507 73.690,69.507 ZM73.690,74.871 L74.596,74.871 C75.097,74.871 75.502,75.271 75.502,75.765 C75.502,76.259 75.097,76.659 74.596,76.659 L73.690,76.659 C73.189,76.659 72.784,76.259 72.784,75.765 C72.784,75.271 73.189,74.871 73.690,74.871 ZM79.127,84.704 L84.844,84.704 C85.742,84.704 86.376,84.553 86.376,82.596 C86.376,82.102 86.874,81.702 87.375,81.702 C87.876,81.702 88.374,82.102 88.374,82.596 L88.374,82.917 C88.374,82.969 88.277,83.020 88.268,83.071 C88.135,85.342 86.923,86.492 84.844,86.492 L79.127,86.492 C78.626,86.492 78.221,86.092 78.221,85.598 C78.221,85.104 78.626,84.704 79.127,84.704 ZM87.355,79.708 C87.110,79.708 86.883,79.609 86.712,79.448 C86.548,79.278 86.449,79.054 86.449,78.814 C86.449,78.580 86.548,78.348 86.712,78.179 C87.047,77.848 87.654,77.848 87.998,78.179 C88.161,78.348 88.261,78.580 88.261,78.814 C88.261,79.046 88.161,79.278 87.998,79.448 C87.826,79.609 87.590,79.708 87.355,79.708 ZM80.939,76.659 L80.033,76.659 C79.532,76.659 79.127,76.259 79.127,75.765 C79.127,75.271 79.532,74.871 80.033,74.871 L80.939,74.871 C81.440,74.871 81.845,75.271 81.845,75.765 C81.845,76.259 81.440,76.659 80.939,76.659 ZM80.939,71.295 L80.033,71.295 C79.532,71.295 79.127,70.896 79.127,70.401 C79.127,69.907 79.532,69.507 80.033,69.507 L80.939,69.507 C81.440,69.507 81.845,69.907 81.845,70.401 C81.845,70.896 81.440,71.295 80.939,71.295 ZM80.939,65.932 L80.033,65.932 C79.532,65.932 79.127,65.532 79.127,65.038 C79.127,64.544 79.532,64.144 80.033,64.144 L80.939,64.144 C81.440,64.144 81.845,64.544 81.845,65.038 C81.845,65.532 81.440,65.932 80.939,65.932 Z" class="cls-1"/>
    <circle cx="66.985" cy="66.985" r="66.485" class="cls-2"/>
  </g>
</svg>
