<svg xmlns="http://www.w3.org/2000/svg" xmlns:xlink="http://www.w3.org/1999/xlink" preserveAspectRatio="xMidYMid" width="300" height="187" viewBox="0 0 300 187">
  <defs>
    <style>
      .cls-1, .cls-3 {
        fill: #2b2c2e;
      }

      .cls-2 {
        fill: #fff;
      }

      .cls-2, .cls-3, .cls-4, .cls-5, .cls-7 {
        fill-rule: evenodd;
      }

      .cls-3 {
        stroke: #555658;
        stroke-width: 2px;
      }

      .cls-4 {
        fill: #555658;
      }

      .cls-5, .cls-6 {
        fill: #4777db;
      }

      .cls-7 {
        fill: #d1d6d8;
      }
    </style>
  </defs>
  <g>
    <rect width="300" height="187" class="cls-1"/>
    <g>
      <path d="M168.690,136.333 C167.971,137.052 166.805,137.052 166.086,136.333 L155.668,120.795 C154.949,120.076 154.949,118.910 155.668,118.192 C156.388,117.472 157.554,117.472 158.273,118.192 L168.690,133.728 C169.409,134.448 169.409,135.614 168.690,136.333 ZM149.360,133.041 C148.300,133.041 147.440,132.182 147.440,131.121 L147.440,53.042 C147.440,51.981 148.300,51.120 149.360,51.120 C150.420,51.120 151.280,51.981 151.280,53.042 L151.280,131.121 C151.280,132.182 150.420,133.041 149.360,133.041 ZM143.052,120.795 L132.634,136.333 C131.915,137.052 130.749,137.052 130.030,136.333 C129.311,135.614 129.311,134.448 130.030,133.728 L140.447,118.192 C141.167,117.472 142.333,117.472 143.052,118.192 C143.771,118.910 143.771,120.076 143.052,120.795 Z" class="cls-2"/>
      <path d="M189.994,60.987 L189.994,120.995 L113.006,120.995 L113.006,60.987 L189.994,60.987 Z" class="cls-3"/>
      <g>
        <path d="M138.480,74.162 C129.997,74.162 123.120,81.038 123.120,89.521 C123.120,98.005 129.997,104.881 138.480,104.881 C146.963,104.881 153.840,98.005 153.840,89.521 L138.480,89.521 L138.480,74.162 Z" class="cls-4"/>
        <path d="M141.040,71.602 C149.523,71.602 156.400,78.479 156.400,86.962 C156.400,86.892 141.040,86.962 141.040,86.962 C141.040,86.962 141.108,71.602 141.040,71.602 Z" class="cls-5"/>
        <circle cx="167.281" cy="96.565" r="3.188" class="cls-6"/>
        <path d="M164.080,104.881 L164.080,102.321 L178.160,102.321 L178.160,104.881 L164.080,104.881 ZM164.080,81.841 L178.160,81.841 L178.160,84.401 L164.080,84.401 L164.080,81.841 ZM174.320,88.241 L164.080,88.241 L164.080,85.681 L174.320,85.681 L174.320,88.241 Z" class="cls-7"/>
        <path d="M167.280,72.881 C169.047,72.881 170.480,74.313 170.480,76.081 C170.480,77.848 169.047,79.281 167.280,79.281 C165.513,79.281 164.080,77.848 164.080,76.081 C164.080,74.313 165.513,72.881 167.280,72.881 Z" class="cls-5"/>
      </g>
      <path d="M111.000,57.000 L189.000,57.000 C190.105,57.000 191.000,57.895 191.000,59.000 C191.000,60.105 190.105,61.000 189.000,61.000 L111.000,61.000 C109.895,61.000 109.000,60.105 109.000,59.000 C109.000,57.895 109.895,57.000 111.000,57.000 Z" class="cls-5"/>
    </g>
  </g>
</svg>
