<svg xmlns="http://www.w3.org/2000/svg" xmlns:xlink="http://www.w3.org/1999/xlink" preserveAspectRatio="xMidYMid" width="300" height="187" viewBox="0 0 300 187">
  <defs>
    <style>
      .cls-1, .cls-2 {
        fill: #2b2c2e;
      }

      .cls-2 {
        stroke: #fff;
        stroke-width: 2px;
      }

      .cls-2, .cls-3 {
        fill-rule: evenodd;
      }

      .cls-3, .cls-4 {
        fill: #555658;
      }

      .cls-5 {
        fill: #4777db;
      }
    </style>
  </defs>
  <g>
    <rect width="300" height="187" class="cls-1"/>
    <g>
      <path d="M111.230,55.001 L190.520,55.001 C192.370,55.001 193.870,56.494 193.870,58.334 L193.870,131.652 C193.870,133.493 192.370,134.985 190.520,134.985 L111.230,134.985 C109.380,134.985 107.880,133.493 107.880,131.652 L107.880,58.334 C107.880,56.494 109.380,55.001 111.230,55.001 Z" class="cls-2"/>
      <path d="M109.000,71.000 L109.000,69.000 L193.000,69.000 L193.000,71.000 L109.000,71.000 Z" class="cls-2"/>
      <path d="M128.720,63.961 C127.483,63.961 126.480,62.958 126.480,61.721 C126.480,60.484 127.483,59.481 128.720,59.481 C129.957,59.481 130.960,60.484 130.960,61.721 C130.960,62.958 129.957,63.961 128.720,63.961 ZM122.000,63.961 C120.763,63.961 119.760,62.958 119.760,61.721 C119.760,60.484 120.763,59.481 122.000,59.481 C123.237,59.481 124.240,60.484 124.240,61.721 C124.240,62.958 123.237,63.961 122.000,63.961 ZM115.280,63.961 C114.043,63.961 113.040,62.958 113.040,61.721 C113.040,60.484 114.043,59.481 115.280,59.481 C116.517,59.481 117.520,60.484 117.520,61.721 C117.520,62.958 116.517,63.961 115.280,63.961 Z" class="cls-3"/>
      <rect x="113" y="75" width="45" height="15" class="cls-4"/>
      <rect x="113" y="94" width="73" height="29" class="cls-4"/>
      <rect x="161" y="75" width="25" height="15" class="cls-5"/>
    </g>
  </g>
</svg>
