<svg xmlns="http://www.w3.org/2000/svg" xmlns:xlink="http://www.w3.org/1999/xlink" preserveAspectRatio="xMidYMid" width="300" height="187" viewBox="0 0 300 187">
  <defs>
    <style>
      .cls-1, .cls-2 {
        fill: #2b2c2e;
      }

      .cls-2 {
        stroke: #fff;
        stroke-width: 2px;
      }

      .cls-2, .cls-3, .cls-6, .cls-8 {
        fill-rule: evenodd;
      }

      .cls-3, .cls-4 {
        fill: #555658;
      }

      .cls-5 {
        fill: #4777db;
      }

      .cls-6 {
        fill: #d8d8d8;
      }

      .cls-7 {
        fill: #fff;
      }

      .cls-8 {
        fill: #bfc3c5;
      }
    </style>
  </defs>
  <g>
    <rect width="300" height="187" class="cls-1"/>
    <g>
      <path d="M97.230,55.001 L176.520,55.001 C178.370,55.001 179.870,56.494 179.870,58.334 L179.870,131.652 C179.870,133.493 178.370,134.985 176.520,134.985 L97.230,134.985 C95.380,134.985 93.880,133.493 93.880,131.652 L93.880,58.334 C93.880,56.494 95.380,55.001 97.230,55.001 Z" class="cls-2"/>
      <path d="M95.000,71.000 L95.000,69.000 L179.000,69.000 L179.000,71.000 L95.000,71.000 Z" class="cls-2"/>
      <path d="M114.720,63.961 C113.483,63.961 112.480,62.958 112.480,61.721 C112.480,60.484 113.483,59.481 114.720,59.481 C115.957,59.481 116.960,60.484 116.960,61.721 C116.960,62.958 115.957,63.961 114.720,63.961 ZM108.000,63.961 C106.763,63.961 105.760,62.958 105.760,61.721 C105.760,60.484 106.763,59.481 108.000,59.481 C109.237,59.481 110.240,60.484 110.240,61.721 C110.240,62.958 109.237,63.961 108.000,63.961 ZM101.280,63.961 C100.043,63.961 99.040,62.958 99.040,61.721 C99.040,60.484 100.043,59.481 101.280,59.481 C102.517,59.481 103.520,60.484 103.520,61.721 C103.520,62.958 102.517,63.961 101.280,63.961 Z" class="cls-3"/>
      <rect x="99" y="75" width="45" height="15" class="cls-4"/>
      <rect x="99" y="94" width="73" height="29" class="cls-4"/>
      <rect x="147" y="75" width="25" height="15" class="cls-5"/>
    </g>
    <g>
      <path d="M200.531,48.596 L200.531,47.812 C200.531,47.378 200.882,47.027 201.315,47.027 L207.587,47.027 C208.020,47.027 208.371,47.378 208.371,47.812 L208.371,48.596 L200.531,48.596 ZM168.387,82.307 L168.387,79.955 C168.387,79.522 168.738,79.171 169.171,79.171 L169.955,79.171 L169.955,83.091 L169.171,83.091 C168.738,83.091 168.387,82.740 168.387,82.307 ZM168.387,74.467 L168.387,72.115 C168.387,71.682 168.738,71.332 169.171,71.332 L169.955,71.332 L169.955,75.252 L169.171,75.252 C168.738,75.252 168.387,74.900 168.387,74.467 ZM168.387,65.843 L168.387,61.139 C168.387,60.707 168.738,60.355 169.171,60.355 L169.955,60.355 L169.955,66.627 L169.171,66.627 C168.738,66.627 168.387,66.277 168.387,65.843 Z" class="cls-6"/>
      <path d="M176.443,48.710 L210.939,48.710 C214.403,48.710 217.211,52.769 217.211,57.777 L217.211,133.708 C217.211,138.715 214.403,142.774 210.939,142.774 L176.443,142.774 C172.979,142.774 170.171,138.715 170.171,133.708 L170.171,57.777 C170.171,52.769 172.979,48.710 176.443,48.710 Z" class="cls-2"/>
      <path d="M173.647,62.811 L211.174,62.811 L211.174,126.108 L173.647,126.108 L173.647,62.811 Z" class="cls-3"/>
      <rect x="176" y="106" width="32" height="15" class="cls-7"/>
      <rect x="176" y="87" width="32" height="15" class="cls-5"/>
      <rect x="176" y="68" width="32" height="15" class="cls-7"/>
      <path d="M196.611,57.219 L189.555,57.219 C189.122,57.219 188.771,56.868 188.771,56.435 C188.771,56.002 189.122,55.651 189.555,55.651 L196.611,55.651 C197.044,55.651 197.395,56.002 197.395,56.435 C197.395,56.868 197.044,57.219 196.611,57.219 ZM193.083,54.084 C192.433,54.084 191.907,53.557 191.907,52.907 C191.907,52.258 192.433,51.731 193.083,51.731 C193.732,51.731 194.259,52.258 194.259,52.907 C194.259,53.557 193.732,54.084 193.083,54.084 Z" class="cls-8"/>
    </g>
  </g>
</svg>
