<svg xmlns="http://www.w3.org/2000/svg" xmlns:xlink="http://www.w3.org/1999/xlink" preserveAspectRatio="xMidYMid" width="300" height="187" viewBox="0 0 300 187">
  <defs>
    <style>
      .cls-1 {
        opacity: 0.6;
      }

      .cls-2, .cls-3, .cls-4 {
        fill: #2b2c2e;
      }

      .cls-3 {
        stroke: #fff;
      }

      .cls-3, .cls-4 {
        stroke-width: 2px;
      }

      .cls-3, .cls-4, .cls-5 {
        fill-rule: evenodd;
      }

      .cls-4 {
        stroke: #555658;
      }

      .cls-5 {
        fill: #4777db;
      }
    </style>
  </defs>
  <g class="cls-1">
    <rect width="300" height="187" class="cls-2"/>
    <g>
      <path d="M111.011,80.671 L150.975,57.995 L190.989,80.671 L190.989,131.989 L111.011,131.989 L111.011,80.671 Z" class="cls-3"/>
      <path d="M119.214,65.752 L183.812,65.752 C184.944,65.752 185.863,66.821 185.863,68.139 L185.863,123.037 C185.863,124.355 184.944,125.424 183.812,125.424 L119.214,125.424 C118.081,125.424 117.163,124.355 117.163,123.037 L117.163,68.139 C117.163,66.821 118.081,65.752 119.214,65.752 Z" class="cls-4"/>
      <path d="M175.200,86.201 L154.800,86.201 C153.806,86.201 153.000,87.007 153.000,88.001 C153.000,88.995 153.806,89.801 154.800,89.801 L175.200,89.801 C176.194,89.801 177.000,88.995 177.000,88.001 C177.000,87.007 176.194,86.201 175.200,86.201 ZM171.600,93.401 L154.800,93.401 C153.806,93.401 153.000,94.207 153.000,95.201 C153.000,96.195 153.806,97.002 154.800,97.002 L171.600,97.002 C172.594,97.002 173.400,96.195 173.400,95.201 C173.400,94.207 172.594,93.401 171.600,93.401 ZM133.820,88.554 L134.638,92.857 L127.800,82.600 L118.200,97.000 C118.200,98.326 124.378,99.400 132.000,99.400 C139.621,99.400 145.800,98.326 145.800,97.000 L137.400,85.000 L133.820,88.554 ZM135.000,82.600 C136.325,82.600 137.400,81.525 137.400,80.200 C137.400,78.875 136.325,77.800 135.000,77.800 C133.675,77.800 132.600,78.875 132.600,80.200 C132.600,81.525 133.675,82.600 135.000,82.600 ZM154.800,82.601 L175.200,82.601 C176.194,82.601 177.000,81.796 177.000,80.801 C177.000,79.807 176.194,79.001 175.200,79.001 L154.800,79.001 C153.806,79.001 153.000,79.807 153.000,80.801 C153.000,81.796 153.806,82.601 154.800,82.601 Z" class="cls-5"/>
      <path d="M111.011,80.671 L150.975,103.345 L190.989,80.671 L190.989,131.989 L111.011,131.989 L111.011,80.671 Z" class="cls-3"/>
    </g>
  </g>
</svg>
