<svg xmlns="http://www.w3.org/2000/svg" xmlns:xlink="http://www.w3.org/1999/xlink" preserveAspectRatio="xMidYMid" width="300" height="187" viewBox="0 0 300 187">
  <defs>
    <style>
      .cls-1, .cls-2, .cls-5 {
        fill: #2b2c2e;
      }

      .cls-2 {
        stroke: #555658;
      }

      .cls-2, .cls-5 {
        stroke-width: 2px;
      }

      .cls-2, .cls-3, .cls-4 {
        fill-rule: evenodd;
      }

      .cls-3 {
        fill: #4777db;
      }

      .cls-4 {
        fill: #555658;
      }

      .cls-5 {
        stroke: #fff;
      }
    </style>
  </defs>
  <g>
    <rect width="300" height="187" class="cls-1"/>
    <g>
      <g>
        <path d="M110.574,64.903 L170.462,48.857 C173.129,48.142 175.871,49.725 176.585,52.392 L194.961,120.973 C195.676,123.640 194.093,126.382 191.426,127.097 L131.538,143.143 C128.871,143.858 126.129,142.275 125.415,139.608 L107.039,71.027 C106.324,68.360 107.907,65.618 110.574,64.903 Z" class="cls-2"/>
        <path d="M133.949,101.165 L166.114,92.546 C167.074,92.289 168.061,92.858 168.318,93.819 C168.576,94.779 168.006,95.766 167.046,96.023 L134.880,104.642 C133.920,104.899 132.933,104.329 132.676,103.369 C132.418,102.409 132.988,101.422 133.949,101.165 Z" class="cls-3"/>
        <path d="M136.511,110.727 L164.330,103.273 C165.290,103.016 166.277,103.586 166.534,104.546 C166.791,105.506 166.222,106.493 165.261,106.751 L137.443,114.205 C136.482,114.462 135.495,113.892 135.238,112.932 C134.981,111.971 135.551,110.984 136.511,110.727 Z" class="cls-4"/>
        <path d="M139.073,120.290 L171.238,111.671 C172.199,111.414 173.186,111.984 173.443,112.944 C173.700,113.904 173.131,114.891 172.170,115.148 L140.005,123.767 C139.045,124.024 138.058,123.455 137.800,122.494 C137.543,121.534 138.113,120.547 139.073,120.290 Z" class="cls-4"/>
        <path d="M126.495,73.346 L151.705,66.591 C152.665,66.333 153.652,66.903 153.910,67.863 C154.167,68.824 153.597,69.811 152.637,70.068 L127.426,76.823 C126.466,77.081 125.479,76.511 125.222,75.550 C124.964,74.590 125.534,73.603 126.495,73.346 Z" class="cls-3"/>
        <path d="M129.057,82.909 L150.763,77.092 C151.723,76.835 152.710,77.405 152.968,78.365 C153.225,79.325 152.655,80.312 151.695,80.570 L129.989,86.386 C129.028,86.643 128.041,86.073 127.784,85.113 C127.527,84.153 128.097,83.166 129.057,82.909 Z" class="cls-4"/>
        <path d="M131.619,92.471 L156.830,85.716 C157.790,85.459 158.777,86.028 159.034,86.989 C159.292,87.949 158.722,88.936 157.762,89.193 L132.551,95.948 C131.591,96.206 130.604,95.636 130.346,94.676 C130.089,93.715 130.659,92.728 131.619,92.471 Z" class="cls-4"/>
      </g>
      <g>
        <path d="M131.538,48.857 L191.426,64.903 C194.093,65.618 195.676,68.360 194.961,71.027 L176.585,139.608 C175.871,142.275 173.129,143.858 170.462,143.143 L110.574,127.097 C107.907,126.382 106.324,123.640 107.039,120.973 L125.415,52.392 C126.129,49.725 128.871,48.142 131.538,48.857 Z" class="cls-2"/>
        <path d="M133.017,92.313 L165.182,100.932 C166.142,101.189 166.712,102.176 166.455,103.136 C166.198,104.096 165.211,104.666 164.250,104.409 L132.085,95.790 C131.125,95.533 130.555,94.546 130.812,93.586 C131.070,92.625 132.057,92.056 133.017,92.313 Z" class="cls-3"/>
        <path d="M130.454,101.875 L158.273,109.329 C159.233,109.587 159.803,110.574 159.546,111.534 C159.289,112.494 158.302,113.064 157.341,112.807 L129.523,105.353 C128.563,105.095 127.993,104.108 128.250,103.148 C128.507,102.188 129.494,101.618 130.454,101.875 Z" class="cls-4"/>
        <path d="M127.892,111.438 L160.057,120.057 C161.018,120.314 161.588,121.301 161.330,122.261 C161.073,123.222 160.086,123.791 159.126,123.534 L126.960,114.916 C126.000,114.658 125.430,113.671 125.688,112.711 C125.945,111.751 126.932,111.181 127.892,111.438 Z" class="cls-4"/>
        <path d="M140.471,64.494 L165.681,71.249 C166.642,71.507 167.212,72.494 166.954,73.454 C166.697,74.414 165.710,74.984 164.750,74.727 L139.539,67.972 C138.579,67.714 138.009,66.727 138.266,65.767 C138.524,64.807 139.511,64.237 140.471,64.494 Z" class="cls-3"/>
        <path d="M137.908,74.057 L159.615,79.873 C160.575,80.130 161.145,81.117 160.887,82.078 C160.630,83.038 159.643,83.608 158.683,83.350 L136.977,77.534 C136.016,77.277 135.447,76.290 135.704,75.330 C135.961,74.370 136.948,73.800 137.908,74.057 Z" class="cls-4"/>
        <path d="M135.346,83.620 L160.557,90.375 C161.517,90.632 162.087,91.619 161.830,92.579 C161.572,93.539 160.585,94.109 159.625,93.852 L134.414,87.097 C133.454,86.839 132.884,85.853 133.142,84.892 C133.399,83.932 134.386,83.362 135.346,83.620 Z" class="cls-4"/>
      </g>
      <g>
        <rect x="114" y="54.5" width="72" height="81" rx="5" ry="5" class="cls-5"/>
        <path d="M132.900,96.800 L166.200,96.800 C167.194,96.800 168.000,97.606 168.000,98.600 C168.000,99.594 167.194,100.400 166.200,100.400 L132.900,100.400 C131.906,100.400 131.100,99.594 131.100,98.600 C131.100,97.606 131.906,96.800 132.900,96.800 Z" class="cls-3"/>
        <path d="M132.900,106.700 L161.700,106.700 C162.694,106.700 163.500,107.506 163.500,108.500 C163.500,109.494 162.694,110.300 161.700,110.300 L132.900,110.300 C131.906,110.300 131.100,109.494 131.100,108.500 C131.100,107.506 131.906,106.700 132.900,106.700 Z" class="cls-4"/>
        <path d="M132.900,116.600 L166.200,116.600 C167.194,116.600 168.000,117.406 168.000,118.400 C168.000,119.394 167.194,120.200 166.200,120.200 L132.900,120.200 C131.906,120.200 131.100,119.394 131.100,118.400 C131.100,117.406 131.906,116.600 132.900,116.600 Z" class="cls-4"/>
        <path d="M132.900,68.000 L159.000,68.000 C159.994,68.000 160.800,68.806 160.800,69.800 C160.800,70.794 159.994,71.600 159.000,71.600 L132.900,71.600 C131.906,71.600 131.100,70.794 131.100,69.800 C131.100,68.806 131.906,68.000 132.900,68.000 Z" class="cls-3"/>
        <path d="M132.900,77.900 L155.372,77.900 C156.366,77.900 157.172,78.706 157.172,79.700 C157.172,80.694 156.366,81.500 155.372,81.500 L132.900,81.500 C131.906,81.500 131.100,80.694 131.100,79.700 C131.100,78.706 131.906,77.900 132.900,77.900 Z" class="cls-4"/>
        <path d="M132.900,87.800 L159.000,87.800 C159.994,87.800 160.800,88.606 160.800,89.600 C160.800,90.594 159.994,91.400 159.000,91.400 L132.900,91.400 C131.906,91.400 131.100,90.594 131.100,89.600 C131.100,88.606 131.906,87.800 132.900,87.800 Z" class="cls-4"/>
      </g>
    </g>
  </g>
</svg>
