<svg xmlns="http://www.w3.org/2000/svg" xmlns:xlink="http://www.w3.org/1999/xlink" preserveAspectRatio="xMidYMid" width="300" height="187" viewBox="0 0 300 187">
  <defs>
    <style>
      .cls-1, .cls-2 {
        fill: #2b2c2e;
      }

      .cls-2 {
        stroke: #fff;
        stroke-width: 2px;
      }

      .cls-3 {
        fill: #4777db;
      }

      .cls-3, .cls-4 {
        fill-rule: evenodd;
      }

      .cls-4 {
        fill: #555658;
      }
    </style>
  </defs>
  <g>
    <rect width="300" height="187" class="cls-1"/>
    <g>
      <rect x="110" y="50" width="80" height="90" rx="5" ry="5" class="cls-2"/>
      <path d="M131.000,103.000 L168.000,103.000 C169.105,103.000 170.000,103.895 170.000,105.000 C170.000,106.105 169.105,107.000 168.000,107.000 L131.000,107.000 C129.895,107.000 129.000,106.105 129.000,105.000 C129.000,103.895 129.895,103.000 131.000,103.000 Z" class="cls-3"/>
      <path d="M134.000,113.000 L166.000,113.000 C167.105,113.000 168.000,113.896 168.000,115.000 C168.000,116.105 167.105,117.000 166.000,117.000 L134.000,117.000 C132.895,117.000 132.000,116.105 132.000,115.000 C132.000,113.896 132.895,113.000 134.000,113.000 Z" class="cls-4"/>
      <path d="M131.000,123.000 L168.000,123.000 C169.105,123.000 170.000,123.895 170.000,125.000 C170.000,126.105 169.105,127.000 168.000,127.000 L131.000,127.000 C129.895,127.000 129.000,126.105 129.000,125.000 C129.000,123.895 129.895,123.000 131.000,123.000 Z" class="cls-4"/>
      <path d="M153.701,73.150 C159.962,83.995 156.831,89.417 144.309,89.417 C131.786,89.417 128.656,83.995 134.917,73.150 C141.178,62.305 147.439,62.305 153.701,73.150 Z" class="cls-4"/>
      <path d="M167.081,78.373 C171.464,85.965 169.273,89.760 160.507,89.760 C151.741,89.760 149.550,85.965 153.933,78.373 C158.316,70.782 162.698,70.782 167.081,78.373 Z" class="cls-4"/>
    </g>
  </g>
</svg>
