<svg xmlns="http://www.w3.org/2000/svg" xmlns:xlink="http://www.w3.org/1999/xlink" preserveAspectRatio="xMidYMid" width="80" height="80" viewBox="0 0 80 80">
  <defs>
    <style>
      .cls-1 {
        fill: #4777db;
      }

      .cls-2 {
        fill: #fff;
        fill-rule: evenodd;
      }
    </style>
  </defs>
  <g>
    <circle cx="40" cy="40" r="40" class="cls-1"/>
    <path d="M48.253,43.699 L41.842,50.237 C40.830,51.269 39.190,51.269 38.178,50.237 L31.767,43.699 C30.756,42.667 30.756,40.994 31.767,39.963 C32.779,38.931 34.419,38.931 35.431,39.963 L37.457,42.029 L37.457,32.630 C37.457,31.182 38.609,30.007 40.031,30.007 C41.451,30.007 42.604,31.182 42.604,32.630 L42.604,41.988 L44.590,39.963 C45.601,38.931 47.242,38.931 48.253,39.963 C49.265,40.994 49.265,42.667 48.253,43.699 Z" class="cls-2"/>
  </g>
</svg>
