<svg xmlns="http://www.w3.org/2000/svg" xmlns:xlink="http://www.w3.org/1999/xlink" preserveAspectRatio="xMidYMid" width="80" height="80" viewBox="0 0 80 80">
  <defs>
    <style>
      .cls-1 {
        fill: #4777db;
      }

      .cls-2 {
        fill: #fff;
        fill-rule: evenodd;
      }
    </style>
  </defs>
  <g>
    <circle cx="40" cy="40" r="40" class="cls-1"/>
    <path d="M48.264,41.037 C47.252,42.069 45.612,42.069 44.600,41.037 L42.574,38.971 L42.574,48.370 C42.574,49.818 41.422,50.993 40.001,50.993 C38.580,50.993 37.427,49.818 37.427,48.370 L37.427,39.012 L35.441,41.037 C34.430,42.069 32.790,42.069 31.778,41.037 C30.766,40.006 30.766,38.333 31.778,37.301 L38.189,30.763 C39.201,29.731 40.841,29.731 41.853,30.763 L48.264,37.301 C49.276,38.333 49.276,40.006 48.264,41.037 Z" class="cls-2"/>
  </g>
</svg>
