<svg xmlns="http://www.w3.org/2000/svg" xmlns:xlink="http://www.w3.org/1999/xlink" preserveAspectRatio="xMidYMid" width="33" height="26" viewBox="0 0 33 26">
  <defs>
    <style>
      .cls-1 {
        fill: #4777db;
        fill-rule: evenodd;
      }
    </style>
  </defs>
  <g>
    <path d="M14.250,22.667 L24.250,22.667 L27.375,26.000 L28.000,26.000 C28.690,26.000 29.250,25.403 29.250,24.667 L29.250,22.667 L31.750,22.667 C32.440,22.667 33.000,22.070 33.000,21.333 L33.000,7.333 C33.000,6.597 32.440,6.000 31.750,6.000 L14.250,6.000 C13.560,6.000 13.000,6.597 13.000,7.333 L13.000,21.333 C13.000,22.070 13.560,22.667 14.250,22.667 ZM14.875,8.000 L31.125,8.000 L31.125,20.666 L27.375,20.666 L27.375,23.171 L25.027,20.666 L14.875,20.666 L14.875,8.000 Z" class="cls-1"/>
    <path d="M18.750,16.667 L8.750,16.667 L5.625,20.000 L5.000,20.000 C4.310,20.000 3.750,19.403 3.750,18.667 L3.750,16.667 L1.250,16.667 C0.560,16.667 -0.000,16.070 -0.000,15.333 L-0.000,1.333 C-0.000,0.597 0.560,0.000 1.250,0.000 L18.750,0.000 C19.440,0.000 20.000,0.597 20.000,1.333 L20.000,15.333 C20.000,16.070 19.440,16.667 18.750,16.667 ZM18.125,2.000 L1.875,2.000 L1.875,14.666 L5.625,14.666 L5.625,17.171 L7.973,14.666 L18.125,14.666 L18.125,2.000 Z" class="cls-1"/>
  </g>
</svg>
