<svg xmlns="http://www.w3.org/2000/svg" xmlns:xlink="http://www.w3.org/1999/xlink" preserveAspectRatio="xMidYMid" width="31" height="31" viewBox="0 0 31 31">
  <defs>
    <style>
      .cls-1 {
        fill: #4777db;
        fill-rule: evenodd;
      }
    </style>
  </defs>
  <path d="M15.500,31.000 C6.939,31.000 -0.000,24.060 -0.000,15.500 C-0.000,6.940 6.939,0.000 15.500,0.000 C24.060,0.000 31.000,6.940 31.000,15.500 C31.000,24.060 24.060,31.000 15.500,31.000 ZM15.500,3.000 C8.607,3.000 3.000,8.607 3.000,15.500 C3.000,22.393 8.607,28.000 15.500,28.000 C22.393,28.000 28.000,22.393 28.000,15.500 C28.000,8.607 22.393,3.000 15.500,3.000 ZM22.500,17.000 L14.000,17.000 L14.000,7.500 C14.000,6.672 14.671,6.000 15.500,6.000 C16.329,6.000 17.000,6.672 17.000,7.500 L17.000,14.000 L22.500,14.000 C23.328,14.000 24.000,14.671 24.000,15.500 C24.000,16.329 23.328,17.000 22.500,17.000 Z" class="cls-1"/>
</svg>
