<svg xmlns="http://www.w3.org/2000/svg" xmlns:xlink="http://www.w3.org/1999/xlink" preserveAspectRatio="xMidYMid" width="32" height="32" viewBox="0 0 32 32">
  <defs>
    <style>
      .cls-1, .cls-2 {
        fill: #4777db;
      }

      .cls-1 {
        fill-rule: evenodd;
      }
    </style>
  </defs>
  <g>
    <path d="M30.000,26.666 L14.000,26.666 L9.000,32.000 L8.000,32.000 C6.895,32.000 6.000,31.045 6.000,29.867 L6.000,26.666 L2.000,26.666 C0.895,26.666 -0.000,25.711 -0.000,24.533 L-0.000,2.133 C-0.000,0.955 0.895,0.000 2.000,0.000 L30.000,0.000 C31.104,0.000 32.000,0.955 32.000,2.133 L32.000,24.533 C32.000,25.711 31.104,26.666 30.000,26.666 ZM29.000,3.200 L3.000,3.200 L3.000,23.467 L9.000,23.467 L9.000,27.475 L12.757,23.467 L29.000,23.467 L29.000,3.200 Z" class="cls-1"/>
    <circle cx="8" cy="14" r="2" class="cls-2"/>
    <circle cx="16" cy="14" r="2" class="cls-2"/>
    <circle cx="24" cy="14" r="2" class="cls-2"/>
  </g>
</svg>
