<svg xmlns="http://www.w3.org/2000/svg" xmlns:xlink="http://www.w3.org/1999/xlink" preserveAspectRatio="xMidYMid" width="300" height="187" viewBox="0 0 300 187">
  <defs>
    <style>
      .cls-1 {
        fill: #2b2c2e;
      }

      .cls-2 {
        stroke: #4777db;
      }

      .cls-2, .cls-3 {
        stroke-width: 4px;
        fill: none;
      }

      .cls-3 {
        stroke: #555658;
      }

      .cls-4 {
        fill: #fff;
        stroke: #2b2c2e;
        stroke-linejoin: round;
        stroke-opacity: 0.8;
        stroke-width: 5px;
        fill-rule: evenodd;
      }
    </style>
  </defs>
  <g>
    <rect width="300" height="187" class="cls-1"/>
    <circle cx="161" cy="78" r="25" class="cls-2"/>
    <circle cx="161" cy="78" r="37.5" class="cls-3"/>
    <path d="M165.934,83.828 L132.977,116.785 C130.091,119.671 128.880,119.264 128.791,117.806 L128.823,102.946 C128.820,100.335 126.624,98.216 123.915,98.214 C121.208,98.212 119.015,100.327 119.017,102.937 L119.034,120.625 C119.034,120.625 118.433,137.116 115.925,139.625 C119.413,143.113 130.548,154.248 135.684,159.384 C139.822,155.245 152.329,154.827 158.554,148.602 C164.779,142.377 170.475,136.648 170.475,136.648 C172.092,135.032 172.076,132.396 170.441,130.761 C168.809,129.129 166.182,129.112 164.564,130.718 L166.608,128.674 C168.728,126.554 168.670,123.058 166.478,120.866 C164.285,118.673 160.789,118.615 158.669,120.735 L161.635,117.769 C163.755,115.649 163.704,112.160 161.520,109.976 C159.336,107.793 155.847,107.741 153.727,109.861 L172.848,90.741 C174.796,88.793 174.828,85.666 172.918,83.756 C171.009,81.847 167.882,81.880 165.934,83.828 Z" class="cls-4"/>
  </g>
</svg>
