<svg xmlns="http://www.w3.org/2000/svg" xmlns:xlink="http://www.w3.org/1999/xlink" preserveAspectRatio="xMidYMid" width="300" height="187" viewBox="0 0 300 187">
  <defs>
    <style>
      .cls-1, .cls-2 {
        fill: #2b2c2e;
      }

      .cls-2 {
        stroke: #fff;
        stroke-width: 2px;
      }

      .cls-2, .cls-3, .cls-6 {
        fill-rule: evenodd;
      }

      .cls-3, .cls-4 {
        fill: #555658;
      }

      .cls-5, .cls-6 {
        fill: #4777db;
      }
    </style>
  </defs>
  <g>
    <rect width="300" height="187" class="cls-1"/>
    <g>
      <path d="M118.230,54.001 L197.520,54.001 C199.370,54.001 200.870,55.494 200.870,57.334 L200.870,130.652 C200.870,132.493 199.370,133.985 197.520,133.985 L118.230,133.985 C116.380,133.985 114.880,132.493 114.880,130.652 L114.880,57.334 C114.880,55.494 116.380,54.001 118.230,54.001 Z" class="cls-2"/>
      <path d="M116.000,70.000 L116.000,68.000 L200.000,68.000 L200.000,70.000 L116.000,70.000 Z" class="cls-2"/>
      <path d="M135.720,62.961 C134.483,62.961 133.480,61.958 133.480,60.721 C133.480,59.484 134.483,58.481 135.720,58.481 C136.957,58.481 137.960,59.484 137.960,60.721 C137.960,61.958 136.957,62.961 135.720,62.961 ZM129.000,62.961 C127.763,62.961 126.760,61.958 126.760,60.721 C126.760,59.484 127.763,58.481 129.000,58.481 C130.237,58.481 131.240,59.484 131.240,60.721 C131.240,61.958 130.237,62.961 129.000,62.961 ZM122.280,62.961 C121.043,62.961 120.040,61.958 120.040,60.721 C120.040,59.484 121.043,58.481 122.280,58.481 C123.517,58.481 124.520,59.484 124.520,60.721 C124.520,61.958 123.517,62.961 122.280,62.961 Z" class="cls-3"/>
      <rect x="120" y="74" width="45" height="15" class="cls-4"/>
      <rect x="120" y="93" width="73" height="29" class="cls-4"/>
      <rect x="168" y="74" width="25" height="15" class="cls-5"/>
    </g>
    <path d="M119.243,124.486 L119.243,124.486 L119.243,132.207 L119.243,132.207 C119.243,132.906 118.976,133.605 118.443,134.138 C117.910,134.671 117.211,134.938 116.513,134.938 L116.513,134.938 L108.791,134.938 L108.791,134.938 C108.092,134.938 107.394,134.671 106.861,134.138 C105.795,133.072 105.795,131.344 106.861,130.277 C107.394,129.744 108.092,129.477 108.791,129.477 L108.791,129.477 L109.752,129.477 C107.889,127.999 105.563,127.079 103.000,127.079 C99.984,127.079 97.254,128.301 95.278,130.277 L95.278,130.277 C94.212,131.344 92.484,131.344 91.417,130.277 C90.351,129.211 90.351,127.482 91.417,126.416 L91.417,126.416 C94.382,123.452 98.477,121.619 103.000,121.619 C107.150,121.619 110.896,123.212 113.783,125.756 L113.783,124.486 L113.783,124.486 C113.783,123.787 114.049,123.089 114.582,122.556 C115.648,121.489 117.377,121.489 118.443,122.556 C118.976,123.089 119.243,123.787 119.243,124.486 ZM99.139,145.720 C98.606,146.253 97.907,146.520 97.209,146.520 L97.209,146.520 L96.247,146.520 C98.110,147.999 100.436,148.919 103.000,148.919 C106.015,148.919 108.745,147.696 110.721,145.720 L110.721,145.720 C111.788,144.654 113.516,144.654 114.582,145.720 C115.648,146.786 115.648,148.515 114.582,149.581 L114.582,149.581 C111.618,152.545 107.523,154.379 103.000,154.379 C98.850,154.379 95.103,152.785 92.217,150.241 L92.217,151.511 L92.217,151.511 C92.217,152.211 91.951,152.909 91.417,153.442 C90.351,154.508 88.623,154.508 87.557,153.442 C87.024,152.909 86.757,152.211 86.757,151.511 L86.757,151.511 L86.757,143.790 L86.757,143.790 C86.757,143.091 87.024,142.393 87.557,141.860 C88.090,141.327 88.788,141.060 89.487,141.060 L89.487,141.060 L97.209,141.060 L97.209,141.060 C97.907,141.060 98.606,141.327 99.139,141.860 C100.205,142.926 100.205,144.654 99.139,145.720 Z" class="cls-6"/>
  </g>
</svg>
