<svg xmlns="http://www.w3.org/2000/svg" xmlns:xlink="http://www.w3.org/1999/xlink" preserveAspectRatio="xMidYMid" width="300" height="187" viewBox="0 0 300 187">
  <defs>
    <style>
      .cls-1, .cls-4 {
        fill: #2b2c2e;
      }

      .cls-2 {
        fill: #555658;
      }

      .cls-2, .cls-3, .cls-4, .cls-5, .cls-6 {
        fill-rule: evenodd;
      }

      .cls-3 {
        fill: #fff;
        stroke: #fff;
        stroke-width: 2px;
      }

      .cls-4 {
        filter: url(#inner-shadow-1);
      }

      .cls-5 {
        fill: #4777db;
      }

      .cls-6 {
        fill: #324d5b;
      }
    </style>

    <filter id="inner-shadow-1" filterUnits="userSpaceOnUse">
      <feOffset dx="-4.243" dy="4.243" in="SourceAlpha"/>
      <feGaussianBlur result="innerShadowBlur"/>
      <feFlood flood-opacity="0.1"/>
      <feComposite operator="out" in2="innerShadowBlur"/>
      <feComposite operator="in" in2="SourceAlpha"/>
      <feBlend mode="multiply" in2="SourceGraphic" result="innerShadow"/>
    </filter>
  </defs>
  <g>
    <rect width="300" height="187" class="cls-1"/>
    <g>
      <path d="M135.000,33.401 L165.000,33.401 L165.000,153.402 L135.000,153.402 L135.000,33.401 Z" class="cls-2"/>
      <path d="M183.400,94.400 C183.400,85.398 179.727,77.256 173.800,71.385 L173.800,63.201 C173.800,61.841 172.686,60.800 171.400,60.800 L170.200,60.800 C169.537,60.800 169.000,61.337 169.000,62.000 L169.000,67.460 C163.851,64.013 157.661,62.000 151.000,62.000 C144.339,62.000 138.149,64.013 133.000,67.460 L133.000,62.000 C133.000,61.337 132.463,60.800 131.800,60.800 L130.600,60.800 C129.315,60.800 128.200,61.841 128.200,63.201 L128.200,71.385 C122.273,77.256 118.600,85.398 118.600,94.400 C118.600,103.402 122.273,111.544 128.200,117.415 L128.200,125.601 C128.200,127.015 129.305,128.000 130.600,128.000 L131.800,128.000 C132.463,128.000 133.000,127.463 133.000,126.800 L133.000,121.340 C138.149,124.787 144.339,126.800 151.000,126.800 C157.661,126.800 163.851,124.787 169.000,121.340 L169.000,126.800 C169.000,127.463 169.537,128.000 170.200,128.000 L171.400,128.000 C172.695,128.000 173.800,127.015 173.800,125.601 L173.800,117.415 C179.727,111.544 183.400,103.402 183.400,94.400 Z" class="cls-3"/>
      <path d="M150.000,65.801 C165.243,65.801 177.600,78.158 177.600,93.401 C177.600,108.644 165.243,121.001 150.000,121.001 C134.757,121.001 122.400,108.644 122.400,93.401 C122.400,78.158 134.757,65.801 150.000,65.801 Z" class="cls-4"/>
      <path d="M155.155,86.533 L135.970,105.718 C135.497,106.190 135.497,106.958 135.970,107.431 C136.443,107.903 137.210,107.903 137.683,107.431 L156.868,88.247 C157.341,87.774 157.341,87.007 156.868,86.533 C156.395,86.061 155.628,86.061 155.155,86.533 Z" class="cls-5"/>
      <path d="M150.000,92.201 L169.200,92.201 C169.863,92.201 170.400,92.739 170.400,93.401 C170.400,94.063 169.863,94.601 169.200,94.601 L150.000,94.601 C149.337,94.601 148.800,94.063 148.800,93.401 C148.800,92.739 149.337,92.201 150.000,92.201 Z" class="cls-2"/>
      <path d="M141.822,82.047 L151.719,91.944 C152.596,92.821 152.596,94.243 151.719,95.120 C150.842,95.997 149.420,95.997 148.543,95.120 L138.646,85.223 C137.769,84.346 137.769,82.923 138.646,82.047 C139.523,81.170 140.945,81.170 141.822,82.047 Z" class="cls-2"/>
      <path d="M150.000,91.001 C151.326,91.001 152.400,92.075 152.400,93.401 C152.400,94.727 151.326,95.801 150.000,95.801 C148.675,95.801 147.600,94.727 147.600,93.401 C147.600,92.075 148.675,91.001 150.000,91.001 Z" class="cls-6"/>
    </g>
  </g>
</svg>
