<svg xmlns="http://www.w3.org/2000/svg" xmlns:xlink="http://www.w3.org/1999/xlink" preserveAspectRatio="xMidYMid" width="60.594" height="60.62" viewBox="0 0 60.594 60.62">
  <defs>
    <style>
      .cls-1 {
        stroke: #d7e3f0;
        stroke-width: 2px;
        fill: none;
      }

      .cls-2 {
        fill: #4d5a6d;
        fill-rule: evenodd;
      }
    </style>
  </defs>
  <g>
    <circle cx="30.297" cy="30.31" r="29.297" class="cls-1"/>
    <path d="M38.227,25.020 C38.053,25.288 38.053,25.818 38.228,26.087 L38.586,26.638 C38.882,27.092 38.971,27.643 38.833,28.151 C38.694,28.658 38.337,29.091 37.852,29.337 L37.263,29.638 C36.974,29.785 36.706,30.243 36.721,30.563 L36.751,31.217 C36.760,31.396 36.736,31.568 36.697,31.736 L38.181,39.784 C38.209,39.866 38.224,39.894 38.224,39.986 C38.224,40.444 37.848,40.755 37.383,40.755 C37.380,40.755 37.377,40.755 37.375,40.755 C37.300,40.755 37.225,40.802 37.152,40.781 L33.493,39.817 L30.423,42.028 C30.277,42.133 30.104,42.201 29.929,42.201 C29.823,42.201 29.717,42.181 29.616,42.141 C29.348,42.035 29.153,41.800 29.102,41.520 L27.995,35.513 L27.040,40.691 C26.989,40.972 26.794,41.206 26.526,41.312 C26.425,41.352 26.319,41.372 26.213,41.372 C26.038,41.372 25.865,41.319 25.719,41.214 L23.809,39.847 L21.533,40.465 C21.255,40.542 20.956,40.470 20.742,40.278 C20.529,40.085 20.431,39.799 20.482,39.518 L21.757,32.601 C21.403,32.229 21.221,31.739 21.246,31.216 L21.276,30.564 C21.291,30.243 21.023,29.785 20.735,29.638 L20.144,29.337 C19.660,29.091 19.302,28.658 19.164,28.151 C19.026,27.643 19.116,27.092 19.410,26.639 L19.770,26.087 C19.944,25.818 19.944,25.288 19.769,25.019 L19.411,24.469 C19.116,24.015 19.026,23.464 19.164,22.957 C19.302,22.449 19.659,22.016 20.144,21.768 L20.735,21.468 C21.023,21.322 21.291,20.864 21.276,20.544 L21.246,19.890 C21.221,19.361 21.406,18.864 21.769,18.490 C22.151,18.095 22.681,17.904 23.251,17.925 L23.915,17.968 C23.915,17.968 23.916,17.968 23.916,17.968 C24.265,17.968 24.709,17.697 24.854,17.422 L25.158,16.835 C25.491,16.199 26.140,15.802 26.851,15.802 C27.219,15.802 27.581,15.907 27.898,16.107 L28.457,16.460 C28.711,16.620 29.286,16.620 29.540,16.459 L30.100,16.105 C30.416,15.906 30.778,15.799 31.146,15.799 C31.857,15.799 32.505,16.194 32.839,16.829 L33.144,17.410 C33.288,17.685 33.732,17.945 34.058,17.945 L34.746,17.913 C35.323,17.893 35.846,18.095 36.228,18.490 C36.590,18.864 36.776,19.361 36.751,19.890 L36.721,20.543 C36.706,20.864 36.974,21.322 37.262,21.469 L37.852,21.768 C38.338,22.016 38.695,22.449 38.833,22.957 C38.971,23.464 38.881,24.015 38.587,24.468 L38.227,25.020 ZM30.517,39.927 L32.832,38.270 C33.040,38.122 33.304,38.074 33.550,38.142 L36.309,38.890 L35.251,33.153 C35.118,33.181 34.980,33.263 34.839,33.263 L34.082,33.297 C34.082,33.297 34.081,33.297 34.081,33.297 C33.731,33.297 33.288,33.489 33.144,33.763 L32.839,34.312 C32.506,34.947 31.857,35.324 31.146,35.324 C30.778,35.324 30.417,35.210 30.100,35.010 L29.545,34.651 L30.517,39.927 ZM23.752,38.143 C23.825,38.123 23.901,38.113 23.975,38.113 C24.151,38.113 24.324,38.168 24.469,38.271 L25.625,39.098 L26.336,35.236 C26.112,35.173 25.911,35.057 25.725,34.919 C25.682,34.887 25.643,34.855 25.603,34.820 C25.428,34.666 25.271,34.492 25.158,34.278 L24.853,33.696 C24.709,33.422 24.264,33.162 23.938,33.162 L23.358,33.188 L22.376,38.517 L23.752,38.143 ZM36.812,24.126 L37.171,23.573 C37.222,23.495 37.220,23.427 37.208,23.385 C37.197,23.344 37.165,23.284 37.080,23.240 L36.491,22.941 C35.618,22.496 34.995,21.433 35.041,20.466 L35.071,19.814 C35.074,19.740 35.054,19.678 35.012,19.634 C34.983,19.604 34.930,19.568 34.840,19.568 L34.161,19.600 C33.173,19.645 32.100,19.029 31.650,18.171 L31.345,17.590 C31.284,17.474 31.194,17.456 31.146,17.456 C31.101,17.456 31.054,17.471 31.008,17.500 L30.448,17.854 C29.651,18.358 28.346,18.358 27.550,17.854 L26.990,17.501 C26.943,17.471 26.897,17.456 26.851,17.456 C26.803,17.456 26.713,17.474 26.652,17.590 L26.348,18.171 C25.896,19.030 24.820,19.678 23.836,19.628 L23.173,19.625 C23.172,19.625 23.171,19.625 23.171,19.625 C23.067,19.625 23.014,19.632 22.985,19.662 C22.943,19.706 22.922,19.754 22.926,19.826 L22.956,20.474 C23.002,21.439 22.379,22.500 21.507,22.944 L20.916,23.243 C20.831,23.285 20.800,23.344 20.788,23.386 C20.777,23.429 20.774,23.495 20.826,23.575 L21.185,24.125 C21.715,24.939 21.715,26.167 21.186,26.981 L20.826,27.534 C20.774,27.612 20.777,27.679 20.788,27.721 C20.800,27.763 20.831,27.822 20.916,27.865 L21.507,28.166 C22.379,28.610 23.002,29.674 22.956,30.640 L22.926,31.293 C22.922,31.367 22.943,31.429 22.985,31.473 C23.012,31.501 23.066,31.530 23.146,31.534 C23.149,31.534 23.158,31.538 23.161,31.538 L23.836,31.507 C24.822,31.467 25.896,32.077 26.347,32.935 L26.652,33.517 C26.684,33.578 26.730,33.617 26.784,33.634 C26.786,33.634 26.787,33.635 26.789,33.635 C26.843,33.651 26.903,33.645 26.964,33.614 C26.964,33.614 26.965,33.614 26.966,33.614 C26.974,33.609 26.982,33.611 26.991,33.606 L27.549,33.253 C27.769,33.114 28.027,33.018 28.302,32.953 C28.314,32.949 28.323,32.940 28.336,32.937 C28.531,32.894 28.732,32.874 28.934,32.870 C28.956,32.870 28.976,32.862 28.999,32.862 C29.057,32.862 29.109,32.881 29.166,32.884 C29.325,32.893 29.478,32.912 29.630,32.944 C29.710,32.961 29.787,32.978 29.864,33.001 C30.074,33.065 30.275,33.144 30.448,33.253 L31.008,33.606 C31.054,33.635 31.100,33.650 31.146,33.650 C31.194,33.650 31.284,33.633 31.345,33.517 L31.651,32.935 C32.100,32.077 33.183,31.509 34.160,31.558 L34.824,31.640 C34.825,31.640 34.825,31.640 34.826,31.640 C34.876,31.640 34.916,31.616 34.952,31.588 C34.975,31.567 34.991,31.547 35.004,31.532 C35.007,31.527 35.010,31.523 35.013,31.518 C35.053,31.473 35.074,31.391 35.071,31.320 L35.041,30.652 C34.995,29.687 35.618,28.617 36.490,28.173 L37.080,27.868 C37.166,27.825 37.197,27.765 37.208,27.723 C37.220,27.681 37.223,27.613 37.171,27.533 L36.812,26.982 C36.282,26.168 36.282,24.939 36.812,24.126 ZM28.999,30.539 C26.209,30.539 23.939,28.302 23.939,25.553 C23.939,22.805 26.209,20.568 28.999,20.568 C31.788,20.568 34.058,22.805 34.058,25.553 C34.058,28.302 31.788,30.539 28.999,30.539 ZM28.999,21.397 C26.672,21.397 24.780,23.261 24.780,25.553 C24.780,27.845 26.672,29.710 28.999,29.710 C31.325,29.710 33.217,27.845 33.217,25.553 C33.217,23.261 31.325,21.397 28.999,21.397 ZM28.999,28.607 C27.660,28.607 26.478,27.766 26.057,26.515 C25.984,26.298 26.103,26.063 26.324,25.992 C26.545,25.921 26.782,26.037 26.855,26.255 C27.162,27.166 28.023,27.778 28.999,27.778 C29.231,27.778 29.419,27.964 29.419,28.192 C29.419,28.422 29.231,28.607 28.999,28.607 ZM26.741,25.040 C26.741,25.269 26.553,25.454 26.321,25.454 C26.088,25.454 25.900,25.269 25.900,25.040 C25.900,24.760 25.939,24.595 26.003,24.358 C26.062,24.136 26.291,24.004 26.517,24.063 C26.742,24.122 26.875,24.349 26.816,24.570 C26.764,24.762 26.741,24.856 26.741,25.040 Z" class="cls-2"/>
  </g>
</svg>
