<svg xmlns="http://www.w3.org/2000/svg" xmlns:xlink="http://www.w3.org/1999/xlink" preserveAspectRatio="xMidYMid" width="60.594" height="60.62" viewBox="0 0 60.594 60.62">
  <defs>
    <style>
      .cls-1 {
        stroke: #d7e3f0;
        stroke-width: 2px;
        fill: none;
      }

      .cls-2 {
        fill: #4d5a6d;
        fill-rule: evenodd;
      }
    </style>
  </defs>
  <g>
    <circle cx="30.297" cy="30.31" r="29.297" class="cls-1"/>
    <path d="M29.991,40.053 L29.991,41.333 L32.751,41.333 C33.211,41.333 33.584,41.706 33.584,42.166 C33.584,42.627 33.211,43.000 32.751,43.000 L25.667,43.000 C25.207,43.000 24.834,42.627 24.834,42.166 C24.834,41.706 25.207,41.333 25.667,41.333 L28.324,41.333 L28.324,40.022 C23.876,39.507 20.407,35.579 20.407,30.982 L20.407,30.500 C20.407,30.040 20.780,29.666 21.241,29.666 C21.701,29.666 22.074,30.040 22.074,30.500 L22.074,30.982 C22.074,34.943 25.374,38.417 29.315,38.417 L29.403,38.417 C33.251,38.417 36.657,35.012 36.657,30.982 L36.657,30.500 C36.657,30.040 37.030,29.666 37.491,29.666 C37.951,29.666 38.324,30.040 38.324,30.500 L38.324,30.982 C38.324,35.796 34.562,39.737 29.991,40.053 ZM29.366,36.750 C26.494,36.750 24.157,34.414 24.157,31.542 L24.157,20.708 C24.157,17.836 26.494,15.500 29.366,15.500 C32.238,15.500 34.574,17.836 34.574,20.708 L34.574,31.542 C34.574,34.414 32.238,36.750 29.366,36.750 ZM32.907,20.708 C32.907,18.755 31.318,17.166 29.366,17.166 C27.412,17.166 25.824,18.755 25.824,20.708 L25.824,31.542 C25.824,33.495 27.412,35.083 29.366,35.083 C31.318,35.083 32.907,33.495 32.907,31.542 L32.907,20.708 ZM29.001,19.250 L28.678,19.250 C28.363,19.250 27.491,19.324 27.491,20.285 L27.491,23.834 C27.491,24.064 27.304,24.250 27.074,24.250 C26.844,24.250 26.657,24.064 26.657,23.834 L26.657,20.285 C26.657,19.167 27.376,18.417 28.678,18.417 L29.001,18.417 C29.231,18.417 29.418,18.603 29.418,18.833 C29.418,19.064 29.231,19.250 29.001,19.250 ZM27.074,24.667 C27.304,24.667 27.491,24.853 27.491,25.083 L27.491,25.500 C27.491,25.730 27.304,25.917 27.074,25.917 C26.844,25.917 26.657,25.730 26.657,25.500 L26.657,25.083 C26.657,24.853 26.844,24.667 27.074,24.667 Z" class="cls-2"/>
  </g>
</svg>
