<svg xmlns="http://www.w3.org/2000/svg" xmlns:xlink="http://www.w3.org/1999/xlink" preserveAspectRatio="xMidYMid" width="60.594" height="60.62" viewBox="0 0 60.594 60.62">
  <defs>
    <style>
      .cls-1 {
        stroke: #d7e3f0;
        stroke-width: 2px;
        fill: none;
      }

      .cls-2 {
        fill: #4d5a6d;
        fill-rule: evenodd;
      }
    </style>
  </defs>
  <g>
    <circle cx="30.297" cy="30.31" r="29.297" class="cls-1"/>
    <path d="M38.301,37.612 L31.128,37.612 L26.428,40.866 C26.300,40.955 26.149,41.000 25.998,41.000 C25.879,41.000 25.760,40.973 25.652,40.917 C25.404,40.790 25.252,40.539 25.259,40.268 L25.332,37.612 L23.480,37.612 C22.068,37.612 21.061,36.490 21.061,35.109 L21.061,25.789 C21.061,24.443 22.068,23.349 23.480,23.349 L38.301,23.349 C39.712,23.349 41.001,24.443 41.001,25.789 L41.001,35.109 C41.001,36.490 39.712,37.612 38.301,37.612 ZM39.524,25.789 C39.524,25.221 38.908,24.775 38.301,24.775 L23.480,24.775 C22.873,24.775 22.538,25.221 22.538,25.789 L22.538,35.109 C22.538,35.693 22.893,36.186 23.480,36.186 L26.090,36.186 C26.289,36.186 26.480,36.264 26.619,36.401 C26.758,36.540 26.833,36.726 26.828,36.918 L26.775,38.871 L30.460,36.320 C30.586,36.233 30.736,36.186 30.890,36.186 L38.301,36.186 C38.887,36.186 39.524,35.693 39.524,35.109 L39.524,25.789 ZM36.429,31.907 L35.691,31.907 C35.487,31.907 35.321,31.747 35.321,31.550 C35.321,31.353 35.487,31.194 35.691,31.194 L36.429,31.194 C36.633,31.194 36.798,31.353 36.798,31.550 C36.798,31.747 36.633,31.907 36.429,31.907 ZM36.429,29.768 L32.737,29.768 C32.532,29.768 32.367,29.608 32.367,29.411 C32.367,29.214 32.532,29.054 32.737,29.054 L36.429,29.054 C36.633,29.054 36.798,29.214 36.798,29.411 C36.798,29.608 36.633,29.768 36.429,29.768 ZM36.429,27.985 L34.952,27.985 C34.748,27.985 34.583,27.825 34.583,27.628 C34.583,27.431 34.748,27.272 34.952,27.272 L36.429,27.272 C36.633,27.272 36.798,27.431 36.798,27.628 C36.798,27.825 36.633,27.985 36.429,27.985 ZM33.475,27.985 L29.783,27.985 C29.578,27.985 29.413,27.825 29.413,27.628 C29.413,27.431 29.578,27.272 29.783,27.272 L33.475,27.272 C33.679,27.272 33.844,27.431 33.844,27.628 C33.844,27.825 33.679,27.985 33.475,27.985 ZM28.305,27.985 L25.351,27.985 C25.147,27.985 24.982,27.825 24.982,27.628 C24.982,27.431 25.147,27.272 25.351,27.272 L28.305,27.272 C28.510,27.272 28.675,27.431 28.675,27.628 C28.675,27.825 28.510,27.985 28.305,27.985 ZM25.351,29.054 L26.828,29.054 C27.033,29.054 27.198,29.214 27.198,29.411 C27.198,29.608 27.033,29.768 26.828,29.768 L25.351,29.768 C25.147,29.768 24.982,29.608 24.982,29.411 C24.982,29.214 25.147,29.054 25.351,29.054 ZM25.351,31.194 L29.044,31.194 C29.248,31.194 29.413,31.353 29.413,31.550 C29.413,31.747 29.248,31.907 29.044,31.907 L25.351,31.907 C25.147,31.907 24.982,31.747 24.982,31.550 C24.982,31.353 25.147,31.194 25.351,31.194 ZM25.351,32.977 L26.828,32.977 C27.033,32.977 27.198,33.136 27.198,33.333 C27.198,33.530 27.033,33.690 26.828,33.690 L25.351,33.690 C25.147,33.690 24.982,33.530 24.982,33.333 C24.982,33.136 25.147,32.977 25.351,32.977 ZM28.305,32.977 L30.890,32.977 C31.094,32.977 31.260,33.136 31.260,33.333 C31.260,33.530 31.094,33.690 30.890,33.690 L28.305,33.690 C28.101,33.690 27.936,33.530 27.936,33.333 C27.936,33.136 28.101,32.977 28.305,32.977 ZM28.305,29.768 C28.101,29.768 27.936,29.608 27.936,29.411 C27.936,29.214 28.101,29.054 28.305,29.054 L31.260,29.054 C31.464,29.054 31.629,29.214 31.629,29.411 C31.629,29.608 31.464,29.768 31.260,29.768 L28.305,29.768 ZM30.152,31.550 C30.152,31.353 30.317,31.194 30.521,31.194 L34.214,31.194 C34.418,31.194 34.583,31.353 34.583,31.550 C34.583,31.747 34.418,31.907 34.214,31.907 L30.521,31.907 C30.317,31.907 30.152,31.747 30.152,31.550 ZM36.201,21.566 C35.793,21.566 35.462,21.247 35.462,20.853 L35.462,20.440 C35.462,19.872 34.846,19.426 34.239,19.426 L19.418,19.426 C18.811,19.426 18.476,19.872 18.476,20.440 L18.476,29.760 C18.476,30.033 18.513,30.257 18.734,30.446 C19.039,30.707 19.032,31.158 18.762,31.453 C18.615,31.612 18.377,31.693 18.173,31.693 C17.999,31.693 17.895,31.634 17.754,31.514 C17.214,31.052 16.999,30.445 16.999,29.760 L16.999,20.440 C16.999,19.095 18.007,18.000 19.418,18.000 L34.239,18.000 C35.650,18.000 36.939,19.095 36.939,20.440 L36.939,20.853 C36.939,21.247 36.608,21.566 36.201,21.566 Z" class="cls-2"/>
  </g>
</svg>
