<svg xmlns="http://www.w3.org/2000/svg" xmlns:xlink="http://www.w3.org/1999/xlink" preserveAspectRatio="xMidYMid" width="126" height="126" viewBox="0 0 126 126">
  <defs>
    <style>
      .cls-1 {
        stroke: #d7e3f0;
        stroke-width: 2px;
        fill: none;
      }

      .cls-2 {
        fill: #295786;
        fill-rule: evenodd;
      }
    </style>
  </defs>
  <g>
    <circle cx="63" cy="63" r="62" class="cls-1"/>
    <path d="M82.327,82.001 L42.673,82.001 C39.705,82.001 37.298,79.566 37.298,76.564 L37.298,47.437 C37.298,44.434 39.705,42.000 42.673,42.000 L82.327,42.000 C85.295,42.000 87.702,44.434 87.702,47.437 L87.702,76.564 C87.702,79.566 85.295,82.001 82.327,82.001 ZM84.600,47.437 C84.600,46.167 83.582,45.138 82.327,45.138 L42.673,45.138 C41.418,45.138 40.400,46.167 40.400,47.437 L40.400,76.564 C40.400,77.833 41.418,78.863 42.673,78.863 L82.327,78.863 C83.582,78.863 84.600,77.833 84.600,76.564 L84.600,47.437 ZM67.832,62.052 C67.854,62.073 67.883,62.085 67.903,62.109 L72.568,67.753 C72.842,68.086 72.799,68.580 72.470,68.858 C72.325,68.981 72.148,69.041 71.973,69.041 C71.752,69.041 71.531,68.945 71.377,68.760 L66.713,63.116 C66.684,63.082 66.673,63.040 66.651,63.002 L62.331,66.482 C62.189,66.596 62.019,66.652 61.848,66.652 C61.675,66.652 61.501,66.593 61.358,66.477 L57.033,62.915 L53.164,67.322 C53.011,67.497 52.798,67.586 52.584,67.586 C52.401,67.586 52.217,67.521 52.069,67.389 C51.749,67.100 51.720,66.605 52.004,66.281 L55.829,61.923 L48.358,55.771 C48.026,55.498 47.976,55.003 48.247,54.667 C48.516,54.333 49.005,54.281 49.338,54.554 L61.853,64.861 L74.065,55.026 C74.401,54.755 74.889,54.812 75.155,55.151 C75.421,55.490 75.366,55.983 75.031,56.253 L67.832,62.052 ZM50.349,68.288 C50.622,67.956 51.111,67.911 51.441,68.189 C51.769,68.466 51.814,68.961 51.539,69.293 L51.200,69.705 C51.047,69.891 50.827,69.986 50.604,69.986 C50.429,69.986 50.253,69.927 50.108,69.805 C49.779,69.527 49.735,69.032 50.010,68.700 L50.349,68.288 Z" class="cls-2"/>
  </g>
</svg>
