<svg xmlns="http://www.w3.org/2000/svg" xmlns:xlink="http://www.w3.org/1999/xlink" preserveAspectRatio="xMidYMid" width="99" height="71" viewBox="0 0 99 71">
  <defs>
    <style>
      .cls-1 {
        fill: #c1c8d0;
      }

      .cls-1, .cls-3 {
        fill-rule: evenodd;
      }

      .cls-2 {
        fill: #f3f5f9;
      }

      .cls-3 {
        fill: #10f9b7;
        filter: url(#color-overlay-1);
      }
    </style>

    <filter id="color-overlay-1" filterUnits="userSpaceOnUse">
      <feFlood flood-color="#c1c8d0"/>
      <feComposite operator="in" in2="SourceGraphic"/>
      <feBlend in2="SourceGraphic" result="solidFill"/>
    </filter>
  </defs>
  <g>
    <path d="M67.123,57.476 L7.877,57.476 C3.527,57.476 0.000,53.978 0.000,49.665 L0.000,7.812 C0.000,3.498 3.527,-0.000 7.877,-0.000 L67.123,-0.000 C71.473,-0.000 75.000,3.498 75.000,7.812 L75.000,49.665 C75.000,53.978 71.473,57.476 67.123,57.476 ZM70.454,7.812 C70.454,5.987 68.963,4.508 67.123,4.508 L7.877,4.508 C6.037,4.508 4.545,5.987 4.545,7.812 L4.545,10.143 L70.454,10.143 L70.454,7.812 ZM70.454,12.397 L4.545,12.397 L4.545,42.825 L70.454,42.825 L70.454,12.397 ZM70.454,45.079 L4.545,45.079 L4.545,49.665 C4.545,51.489 6.037,52.968 7.877,52.968 L67.123,52.968 C68.963,52.968 70.454,51.489 70.454,49.665 L70.454,45.079 ZM22.011,34.537 C22.240,33.957 22.901,33.670 23.483,33.896 C24.068,34.122 24.357,34.775 24.129,35.356 L23.436,37.120 C23.261,37.566 22.832,37.837 22.377,37.837 C22.240,37.837 22.100,37.813 21.965,37.761 C21.380,37.535 21.091,36.881 21.319,36.301 L22.011,34.537 ZM23.531,30.670 L28.243,18.666 C28.471,18.085 29.128,17.796 29.714,18.024 C30.299,18.250 30.589,18.902 30.361,19.482 L25.649,31.488 C25.474,31.933 25.044,32.206 24.589,32.206 C24.453,32.206 24.313,32.181 24.178,32.129 C23.593,31.903 23.303,31.250 23.531,30.670 ZM31.360,30.126 C31.587,29.547 32.244,29.256 32.830,29.485 C33.415,29.711 33.705,30.365 33.477,30.945 L30.255,39.153 C30.079,39.597 29.650,39.870 29.195,39.870 C29.058,39.870 28.918,39.846 28.783,39.793 C28.198,39.568 27.909,38.913 28.137,38.334 L31.360,30.126 ZM33.115,28.757 C32.531,28.531 32.241,27.877 32.469,27.298 L32.778,26.513 C33.006,25.932 33.666,25.646 34.250,25.872 C34.834,26.097 35.123,26.751 34.895,27.331 L34.587,28.116 C34.412,28.562 33.982,28.834 33.527,28.834 C33.391,28.834 33.251,28.810 33.115,28.757 ZM22.863,66.492 L53.544,66.492 C54.799,66.492 55.817,67.501 55.817,68.746 C55.817,69.991 54.799,71.000 53.544,71.000 L22.863,71.000 C21.608,71.000 20.590,69.991 20.590,68.746 C20.590,67.501 21.608,66.492 22.863,66.492 Z" class="cls-1"/>
    <g>
      <rect x="58" y="12" width="41" height="59" rx="5" ry="5" class="cls-2"/>
      <path d="M92.526,70.998 L64.287,70.998 C60.815,70.998 58.000,68.137 58.000,64.608 L58.000,18.392 C58.000,14.863 60.815,12.002 64.287,12.002 L92.526,12.002 C95.998,12.002 98.813,14.863 98.813,18.392 L98.813,64.608 C98.813,68.137 95.998,70.998 92.526,70.998 ZM95.185,18.392 C95.185,16.899 93.995,15.689 92.526,15.689 L64.287,15.689 C62.818,15.689 61.628,16.899 61.628,18.392 L61.628,20.299 L95.185,20.299 L95.185,18.392 ZM95.185,22.142 L61.628,22.142 L61.628,57.171 L95.185,57.171 L95.185,22.142 ZM95.185,59.014 L61.628,59.014 L61.628,64.608 C61.628,66.101 62.818,67.310 64.287,67.310 L92.526,67.310 C93.995,67.310 95.185,66.101 95.185,64.608 L95.185,59.014 ZM79.087,64.545 L78.633,64.545 C77.757,64.545 77.046,63.823 77.046,62.932 L77.046,62.471 C77.046,61.580 77.757,60.858 78.633,60.858 L79.087,60.858 C79.963,60.858 80.674,61.580 80.674,62.471 L80.674,62.932 C80.674,63.823 79.963,64.545 79.087,64.545 ZM73.304,43.859 C73.470,43.378 73.986,43.124 74.460,43.295 C74.933,43.463 75.181,43.990 75.015,44.471 L74.462,46.070 C74.330,46.449 73.981,46.686 73.606,46.686 C73.507,46.686 73.405,46.670 73.306,46.634 C72.833,46.466 72.585,45.939 72.750,45.458 L73.304,43.859 ZM74.516,40.351 L78.277,29.463 C78.442,28.982 78.960,28.728 79.433,28.899 C79.906,29.067 80.154,29.594 79.988,30.073 L76.228,40.962 C76.097,41.342 75.747,41.578 75.372,41.578 C75.273,41.578 75.171,41.562 75.072,41.526 C74.599,41.358 74.351,40.831 74.516,40.351 ZM80.764,39.858 C80.930,39.378 81.447,39.121 81.921,39.294 C82.393,39.462 82.642,39.988 82.475,40.468 L79.903,47.913 C79.772,48.293 79.422,48.530 79.048,48.530 C78.949,48.530 78.847,48.513 78.747,48.477 C78.274,48.309 78.026,47.783 78.192,47.303 L80.764,39.858 ZM82.205,38.468 C81.732,38.300 81.484,37.773 81.650,37.292 L81.896,36.581 C82.063,36.101 82.578,35.845 83.053,36.017 C83.525,36.185 83.774,36.712 83.607,37.192 L83.361,37.904 C83.230,38.284 82.880,38.520 82.505,38.520 C82.406,38.520 82.304,38.504 82.205,38.468 Z" class="cls-3"/>
    </g>
  </g>
</svg>
