<svg xmlns="http://www.w3.org/2000/svg" xmlns:xlink="http://www.w3.org/1999/xlink" preserveAspectRatio="xMidYMid" width="58" height="70" viewBox="0 0 58 70">
  <defs>
    <style>
      .cls-1 {
        fill: #4d5a6d;
        fill-rule: evenodd;
      }
    </style>
  </defs>
  <path d="M29.463,69.869 C29.228,69.958 28.697,70.002 28.451,70.002 C28.251,70.002 28.334,69.974 28.140,69.915 C26.980,69.566 -0.003,61.152 -0.003,43.464 L-0.003,13.582 C-0.003,12.428 0.642,11.493 1.786,11.493 C6.940,11.493 11.055,7.259 11.131,2.060 C11.148,0.917 11.928,-0.003 13.061,-0.003 L43.808,-0.003 C44.940,-0.003 45.862,0.917 45.879,2.060 C45.955,7.259 50.493,11.492 55.648,11.492 C56.792,11.492 58.003,12.428 58.003,13.582 L58.003,43.475 C58.003,58.968 30.616,69.432 29.463,69.869 ZM53.859,43.475 L53.859,36.045 L30.037,36.045 L30.037,65.252 C38.025,61.872 53.859,53.172 53.859,43.475 ZM27.965,65.357 L27.965,36.045 L4.141,36.045 L4.141,43.464 C4.141,55.875 22.332,63.343 27.965,65.357 ZM14.948,4.175 C13.980,10.442 9.320,14.609 4.141,15.511 L4.141,33.956 L27.965,33.956 L27.965,4.175 L14.948,4.175 ZM41.921,4.175 L30.037,4.175 L30.037,33.956 L53.859,33.956 L53.859,15.511 C47.644,14.609 42.888,10.442 41.921,4.175 ZM7.573,41.859 C8.132,41.757 8.673,42.124 8.779,42.690 C8.784,42.714 8.847,43.041 8.996,43.576 C9.152,44.131 8.830,44.708 8.280,44.864 C8.186,44.890 8.092,44.903 7.999,44.903 C7.546,44.903 7.131,44.602 7.002,44.141 C6.816,43.473 6.743,43.075 6.743,43.075 C6.640,42.508 7.011,41.964 7.573,41.859 ZM9.303,47.363 C9.805,47.084 10.435,47.271 10.709,47.777 C12.355,50.807 15.131,53.374 18.735,55.199 C19.247,55.458 19.453,56.085 19.196,56.600 C19.014,56.965 18.649,57.176 18.270,57.176 C18.113,57.176 17.955,57.141 17.805,57.065 C13.823,55.049 10.741,52.184 8.893,48.781 C8.618,48.275 8.802,47.641 9.303,47.363 Z" class="cls-1"/>
</svg>
