<svg xmlns="http://www.w3.org/2000/svg" xmlns:xlink="http://www.w3.org/1999/xlink" preserveAspectRatio="xMidYMid" width="63" height="48" viewBox="0 0 63 48">
  <defs>
    <style>
      .cls-1 {
        fill: #c1c8d0;
        fill-rule: evenodd;
      }
    </style>
  </defs>
  <path d="M54.330,17.202 C54.166,17.202 54.006,17.186 53.844,17.177 L49.180,30.495 C51.458,32.047 52.956,34.646 52.956,37.587 C52.956,42.328 49.067,46.185 44.284,46.185 C39.504,46.185 35.615,42.328 35.615,37.587 C35.615,35.480 36.386,33.550 37.659,32.052 L28.114,22.270 C26.582,23.620 24.573,24.447 22.367,24.447 C21.573,24.447 20.808,24.332 20.077,24.133 L15.415,34.008 C16.616,35.484 17.339,37.358 17.339,39.398 C17.339,44.139 13.450,47.997 8.668,47.997 C3.888,47.997 -0.002,44.139 -0.002,39.398 C-0.002,34.657 3.888,30.798 8.668,30.798 C10.036,30.798 11.326,31.123 12.478,31.685 L16.832,22.461 C14.918,20.882 13.697,18.505 13.697,15.849 C13.697,11.107 17.586,7.249 22.367,7.249 C27.149,7.249 31.038,11.107 31.038,15.849 C31.038,17.078 30.772,18.245 30.302,19.303 L40.571,29.828 C41.698,29.294 42.954,28.987 44.284,28.987 C44.800,28.987 45.302,29.040 45.793,29.126 L50.314,16.216 C47.552,14.777 45.661,11.907 45.661,8.603 C45.661,3.862 49.550,0.003 54.330,0.003 C59.112,0.003 63.001,3.862 63.001,8.603 C63.001,13.344 59.112,17.202 54.330,17.202 ZM8.668,34.421 C5.902,34.421 3.651,36.654 3.651,39.398 C3.651,42.142 5.902,44.374 8.668,44.374 C11.435,44.374 13.686,42.142 13.686,39.398 C13.686,36.654 11.435,34.421 8.668,34.421 ZM22.367,10.872 C19.600,10.872 17.350,13.104 17.350,15.849 C17.350,18.593 19.600,20.824 22.367,20.824 C25.134,20.824 27.385,18.593 27.385,15.849 C27.385,13.104 25.134,10.872 22.367,10.872 ZM39.268,37.587 C39.268,40.331 41.518,42.562 44.284,42.562 C47.052,42.562 49.303,40.331 49.303,37.587 C49.303,34.842 47.052,32.610 44.284,32.610 C41.518,32.610 39.268,34.842 39.268,37.587 ZM54.330,3.626 C51.564,3.626 49.314,5.859 49.314,8.603 C49.314,11.347 51.564,13.579 54.330,13.579 C57.098,13.579 59.349,11.347 59.349,8.603 C59.349,5.859 57.098,3.626 54.330,3.626 ZM55.243,6.826 C54.340,6.826 53.500,7.270 52.996,8.016 C52.819,8.277 52.530,8.418 52.236,8.418 C52.061,8.418 51.885,8.368 51.729,8.264 C51.309,7.986 51.198,7.423 51.479,7.007 C52.323,5.759 53.730,5.014 55.243,5.014 C55.748,5.014 56.157,5.419 56.157,5.919 C56.157,6.420 55.748,6.826 55.243,6.826 Z" class="cls-1"/>
</svg>
