<svg xmlns="http://www.w3.org/2000/svg" xmlns:xlink="http://www.w3.org/1999/xlink" preserveAspectRatio="xMidYMid" width="60" height="48" viewBox="0 0 60 48">
  <defs>
    <style>
      .cls-1 {
        fill: #c1c8d0;
        fill-rule: evenodd;
      }
    </style>
  </defs>
  <path d="M36.841,47.870 C36.579,47.975 36.339,47.998 36.177,47.998 L14.116,47.998 C6.332,47.998 -0.002,41.637 -0.002,33.820 C-0.002,28.944 2.579,24.328 6.652,21.775 C7.024,17.735 10.197,14.489 14.215,13.990 C18.106,5.455 26.549,0.002 36.030,0.002 C49.249,0.002 60.002,10.718 60.002,23.891 C60.002,36.785 49.657,47.440 36.841,47.870 ZM36.030,3.519 C27.619,3.519 20.167,8.552 17.045,16.342 C16.777,17.010 16.126,17.447 15.406,17.447 C15.363,17.448 15.264,17.442 15.220,17.440 C12.455,17.441 10.146,19.743 10.146,22.572 L10.157,22.747 C10.179,23.422 9.812,24.049 9.212,24.363 C5.758,26.166 3.527,29.879 3.527,33.820 C3.527,39.699 8.277,44.481 14.116,44.481 L35.692,44.481 C35.943,44.386 36.169,44.365 36.325,44.365 C47.424,44.220 56.473,35.035 56.473,23.891 C56.473,12.658 47.302,3.519 36.030,3.519 ZM51.916,23.376 C51.915,23.376 51.915,23.376 51.915,23.376 L51.914,23.376 C51.427,23.376 51.032,22.933 51.031,22.447 C51.031,21.985 51.007,21.499 50.959,21.051 C50.907,20.568 51.259,20.122 51.744,20.072 C52.217,20.017 52.663,20.366 52.714,20.848 C52.768,21.354 52.796,21.925 52.796,22.447 C52.797,22.933 52.403,23.376 51.916,23.376 ZM50.214,16.641 C49.902,16.641 49.600,16.476 49.439,16.185 C47.157,12.041 42.797,9.467 38.059,9.467 C37.571,9.467 37.176,9.074 37.176,8.587 C37.176,8.101 37.571,7.708 38.059,7.708 C43.441,7.708 48.395,10.632 50.987,15.338 C51.221,15.764 51.064,16.299 50.638,16.533 C50.502,16.606 50.357,16.641 50.214,16.641 ZM27.979,32.205 C28.138,32.371 28.235,32.601 28.235,32.829 C28.235,33.058 28.138,33.286 27.979,33.453 C27.811,33.612 27.582,33.709 27.353,33.709 C27.124,33.709 26.893,33.612 26.726,33.453 C26.567,33.286 26.470,33.058 26.470,32.829 C26.470,32.601 26.567,32.371 26.726,32.205 C27.053,31.879 27.644,31.879 27.979,32.205 ZM41.483,29.835 C41.031,30.760 40.027,31.290 38.729,31.290 L36.358,31.290 L36.358,33.952 C36.358,36.860 33.923,39.140 31.211,39.140 C29.116,39.140 27.323,38.028 26.563,36.091 C26.386,35.638 26.533,35.128 26.986,34.951 C27.442,34.774 27.914,34.997 28.091,35.450 C28.579,36.695 29.881,37.380 31.230,37.380 C32.952,37.380 34.593,35.874 34.593,33.952 L34.593,30.411 C34.593,29.925 34.366,29.532 34.853,29.532 L38.729,29.532 C39.326,29.532 39.750,29.361 39.895,29.066 C40.057,28.735 39.900,28.202 39.485,27.676 L32.790,19.019 C32.323,18.427 31.717,18.097 31.090,18.097 L31.089,18.097 C30.499,18.097 29.936,18.399 29.504,18.949 L22.820,27.703 C22.401,28.235 22.243,28.757 22.399,29.076 C22.537,29.361 22.975,29.532 23.568,29.532 L26.911,29.532 C27.399,29.532 27.794,29.925 27.794,30.411 C27.794,30.897 27.399,31.290 26.911,31.290 L23.568,31.290 C22.264,31.290 21.260,30.764 20.811,29.845 C20.344,28.888 20.567,27.715 21.423,26.627 L28.107,17.874 C28.889,16.881 29.946,16.339 31.089,16.339 L31.090,16.339 C32.254,16.339 33.382,16.922 34.183,17.940 L40.878,26.596 C41.720,27.665 41.949,28.879 41.483,29.835 Z" class="cls-1"/>
</svg>
